<svg width="330" height="21" viewBox="0 0 330 21" fill="none" xmlns="http://www.w3.org/2000/svg">
<g clip-path="url(#clip0_111240_808)">
<path d="M1.204 6.298H2.562V16H1.204V6.298ZM4.87977 8.93C5.17843 8.85533 5.5751 8.776 6.06977 8.692C6.56443 8.608 7.13377 8.566 7.77777 8.566C8.35643 8.566 8.8371 8.65 9.21977 8.818C9.60243 8.97667 9.90577 9.20533 10.1298 9.504C10.3631 9.79333 10.5264 10.1433 10.6198 10.554C10.7131 10.9647 10.7598 11.4173 10.7598 11.912V16H9.45777V12.192C9.45777 11.744 9.4251 11.3613 9.35977 11.044C9.30377 10.7267 9.20577 10.47 9.06577 10.274C8.92577 10.078 8.7391 9.938 8.50577 9.854C8.27243 9.76067 7.9831 9.714 7.63777 9.714C7.49777 9.714 7.3531 9.71867 7.20377 9.728C7.05443 9.73733 6.90977 9.75133 6.76977 9.77C6.6391 9.77933 6.51777 9.79333 6.40577 9.812C6.3031 9.83067 6.22843 9.84467 6.18177 9.854V16H4.87977V8.93ZM17.6228 10.26C17.4642 10.1293 17.2355 10.0033 16.9368 9.882C16.6382 9.76067 16.3115 9.7 15.9568 9.7C15.5835 9.7 15.2615 9.77 14.9908 9.91C14.7295 10.0407 14.5148 10.2273 14.3468 10.47C14.1788 10.7033 14.0575 10.9833 13.9828 11.31C13.9082 11.6367 13.8708 11.9867 13.8708 12.36C13.8708 13.2093 14.0808 13.8673 14.5008 14.334C14.9208 14.7913 15.4808 15.02 16.1808 15.02C16.5355 15.02 16.8295 15.006 17.0628 14.978C17.3055 14.9407 17.4922 14.9033 17.6228 14.866V10.26ZM17.6228 5.36L18.9248 5.136V15.79C18.6262 15.874 18.2435 15.958 17.7768 16.042C17.3102 16.126 16.7735 16.168 16.1668 16.168C15.6068 16.168 15.1028 16.0793 14.6548 15.902C14.2068 15.7247 13.8242 15.4727 13.5068 15.146C13.1895 14.8193 12.9422 14.4227 12.7648 13.956C12.5968 13.48 12.5128 12.948 12.5128 12.36C12.5128 11.8 12.5828 11.2867 12.7228 10.82C12.8722 10.3533 13.0868 9.952 13.3668 9.616C13.6468 9.28 13.9875 9.01867 14.3888 8.832C14.7995 8.64533 15.2662 8.552 15.7888 8.552C16.2088 8.552 16.5775 8.608 16.8948 8.72C17.2215 8.832 17.4642 8.93933 17.6228 9.042V5.36ZM26.959 15.79C26.6603 15.8647 26.2636 15.944 25.769 16.028C25.2836 16.112 24.719 16.154 24.075 16.154C23.515 16.154 23.0436 16.0747 22.661 15.916C22.2783 15.748 21.9703 15.5147 21.737 15.216C21.5036 14.9173 21.3356 14.5673 21.233 14.166C21.1303 13.7553 21.079 13.3027 21.079 12.808V8.72H22.381V12.528C22.381 13.4147 22.521 14.0493 22.801 14.432C23.081 14.8147 23.5523 15.006 24.215 15.006C24.355 15.006 24.4996 15.0013 24.649 14.992C24.7983 14.9827 24.9383 14.9733 25.069 14.964C25.1996 14.9453 25.3163 14.9313 25.419 14.922C25.531 14.9033 25.6103 14.8847 25.657 14.866V8.72H26.959V15.79ZM30.896 15.062C31.428 15.062 31.82 14.992 32.072 14.852C32.3334 14.712 32.464 14.488 32.464 14.18C32.464 13.8627 32.338 13.6107 32.086 13.424C31.834 13.2373 31.4187 13.0273 30.84 12.794C30.56 12.682 30.2894 12.57 30.028 12.458C29.776 12.3367 29.5567 12.1967 29.37 12.038C29.1834 11.8793 29.034 11.688 28.922 11.464C28.81 11.24 28.754 10.9647 28.754 10.638C28.754 9.994 28.992 9.48533 29.468 9.112C29.944 8.72933 30.5927 8.538 31.414 8.538C31.6194 8.538 31.8247 8.552 32.03 8.58C32.2354 8.59867 32.4267 8.62667 32.604 8.664C32.7814 8.692 32.9354 8.72467 33.066 8.762C33.206 8.79933 33.3134 8.832 33.388 8.86L33.15 9.98C33.01 9.90533 32.7907 9.83067 32.492 9.756C32.1934 9.672 31.834 9.63 31.414 9.63C31.05 9.63 30.7327 9.70467 30.462 9.854C30.1914 9.994 30.056 10.218 30.056 10.526C30.056 10.6847 30.084 10.8247 30.14 10.946C30.2054 11.0673 30.2987 11.1793 30.42 11.282C30.5507 11.3753 30.7094 11.464 30.896 11.548C31.0827 11.632 31.3067 11.7207 31.568 11.814C31.9134 11.9447 32.2214 12.0753 32.492 12.206C32.7627 12.3273 32.9914 12.472 33.178 12.64C33.374 12.808 33.5234 13.0133 33.626 13.256C33.7287 13.4893 33.78 13.7787 33.78 14.124C33.78 14.796 33.528 15.3047 33.024 15.65C32.5294 15.9953 31.82 16.168 30.896 16.168C30.252 16.168 29.748 16.112 29.384 16C29.02 15.8973 28.7727 15.818 28.642 15.762L28.88 14.642C29.0294 14.698 29.2674 14.782 29.594 14.894C29.9207 15.006 30.3547 15.062 30.896 15.062ZM36.6681 8.72H39.4261V9.812H36.6681V13.172C36.6681 13.536 36.6961 13.8393 36.7521 14.082C36.8081 14.3153 36.8921 14.502 37.0041 14.642C37.1161 14.7727 37.2561 14.866 37.4241 14.922C37.5921 14.978 37.7881 15.006 38.0121 15.006C38.4041 15.006 38.7167 14.964 38.9501 14.88C39.1927 14.7867 39.3607 14.7213 39.4541 14.684L39.7061 15.762C39.5754 15.8273 39.3467 15.9067 39.0201 16C38.6934 16.1027 38.3201 16.154 37.9001 16.154C37.4054 16.154 36.9947 16.0933 36.6681 15.972C36.3507 15.8413 36.0941 15.65 35.8981 15.398C35.7021 15.146 35.5621 14.838 35.4781 14.474C35.4034 14.1007 35.3661 13.6713 35.3661 13.186V6.69L36.6681 6.466V8.72ZM43.7709 8.566C43.8829 8.566 44.0089 8.57533 44.1489 8.594C44.2982 8.60333 44.4429 8.622 44.5829 8.65C44.7229 8.66867 44.8489 8.692 44.9609 8.72C45.0822 8.73867 45.1709 8.75733 45.2269 8.776L45.0029 9.91C44.9002 9.87267 44.7276 9.83067 44.4849 9.784C44.2516 9.728 43.9482 9.7 43.5749 9.7C43.3322 9.7 43.0896 9.728 42.8469 9.784C42.6136 9.83067 42.4596 9.86333 42.3849 9.882V16H41.0829V9.028C41.3909 8.916 41.7736 8.81333 42.2309 8.72C42.6882 8.61733 43.2016 8.566 43.7709 8.566ZM45.9301 17.358C46.0327 17.4047 46.1634 17.4467 46.3221 17.484C46.4901 17.5307 46.6534 17.554 46.8121 17.554C47.3254 17.554 47.7267 17.4373 48.0161 17.204C48.3054 16.98 48.5667 16.6113 48.8001 16.098C48.2121 14.978 47.6614 13.7927 47.1481 12.542C46.6441 11.282 46.2241 10.008 45.8881 8.72H47.2881C47.3907 9.14 47.5121 9.59267 47.6521 10.078C47.8014 10.5633 47.9647 11.0627 48.1421 11.576C48.3194 12.0893 48.5107 12.6027 48.7161 13.116C48.9214 13.6293 49.1361 14.124 49.3601 14.6C49.7147 13.62 50.0227 12.6493 50.2841 11.688C50.5454 10.7267 50.7927 9.73733 51.0261 8.72H52.3701C52.0341 10.092 51.6607 11.4127 51.2501 12.682C50.8394 13.942 50.3961 15.1227 49.9201 16.224C49.7334 16.644 49.5374 17.0033 49.3321 17.302C49.1361 17.61 48.9167 17.862 48.6741 18.058C48.4314 18.254 48.1561 18.3987 47.8481 18.492C47.5494 18.5853 47.2087 18.632 46.8261 18.632C46.7234 18.632 46.6161 18.6227 46.5041 18.604C46.3921 18.5947 46.2801 18.576 46.1681 18.548C46.0654 18.5293 45.9674 18.506 45.8741 18.478C45.7901 18.45 45.7294 18.4267 45.6921 18.408L45.9301 17.358ZM63.7173 16C63.5119 15.6547 63.2739 15.2673 63.0033 14.838C62.7419 14.4087 62.4573 13.9653 62.1493 13.508C61.8413 13.0413 61.5193 12.57 61.1833 12.094C60.8566 11.618 60.5299 11.1607 60.2033 10.722C59.8766 10.274 59.5593 9.854 59.2513 9.462C58.9433 9.07 58.6586 8.72467 58.3973 8.426V16H57.0673V6.298H58.1453C58.5839 6.76467 59.0506 7.31067 59.5453 7.936C60.0493 8.552 60.5439 9.19133 61.0293 9.854C61.5239 10.5073 61.9859 11.1513 62.4153 11.786C62.8539 12.4207 63.2226 12.9853 63.5213 13.48V6.298H64.8513V16H63.7173ZM66.7628 12.374C66.7628 11.73 66.8562 11.17 67.0428 10.694C67.2295 10.2087 67.4768 9.80733 67.7848 9.49C68.0928 9.17267 68.4475 8.93467 68.8488 8.776C69.2502 8.61733 69.6608 8.538 70.0808 8.538C71.0608 8.538 71.8122 8.846 72.3348 9.462C72.8575 10.0687 73.1188 10.9973 73.1188 12.248C73.1188 12.304 73.1188 12.3787 73.1188 12.472C73.1188 12.556 73.1142 12.6353 73.1048 12.71H68.1208C68.1768 13.466 68.3962 14.04 68.7788 14.432C69.1615 14.824 69.7588 15.02 70.5708 15.02C71.0282 15.02 71.4108 14.9827 71.7188 14.908C72.0362 14.824 72.2742 14.7447 72.4328 14.67L72.6148 15.762C72.4562 15.846 72.1762 15.9347 71.7748 16.028C71.3828 16.1213 70.9348 16.168 70.4308 16.168C69.7962 16.168 69.2455 16.0747 68.7788 15.888C68.3215 15.692 67.9435 15.426 67.6448 15.09C67.3462 14.754 67.1222 14.3573 66.9728 13.9C66.8328 13.4333 66.7628 12.9247 66.7628 12.374ZM71.7608 11.66C71.7702 11.072 71.6208 10.5913 71.3128 10.218C71.0142 9.83533 70.5988 9.644 70.0668 9.644C69.7682 9.644 69.5022 9.70467 69.2688 9.826C69.0448 9.938 68.8535 10.0873 68.6948 10.274C68.5362 10.4607 68.4102 10.6753 68.3168 10.918C68.2328 11.1607 68.1768 11.408 68.1488 11.66H71.7608ZM80.9391 16C80.6778 15.328 80.3978 14.5627 80.0991 13.704C79.8098 12.836 79.5438 11.9353 79.3011 11.002C79.0585 11.9353 78.7925 12.836 78.5031 13.704C78.2138 14.5627 77.9385 15.328 77.6771 16H76.5431C76.1138 15.0387 75.6938 13.942 75.2831 12.71C74.8725 11.478 74.4851 10.148 74.1211 8.72H75.5211C75.6145 9.15867 75.7265 9.63467 75.8571 10.148C75.9878 10.6613 76.1231 11.1747 76.2631 11.688C76.4125 12.2013 76.5665 12.696 76.7251 13.172C76.8838 13.648 77.0331 14.0633 77.1731 14.418C77.3318 13.9793 77.4858 13.5173 77.6351 13.032C77.7938 12.5373 77.9431 12.0427 78.0831 11.548C78.2231 11.044 78.3538 10.554 78.4751 10.078C78.6058 9.59267 78.7178 9.14 78.8111 8.72H79.8891C79.9731 9.14 80.0758 9.59267 80.1971 10.078C80.3185 10.554 80.4491 11.044 80.5891 11.548C80.7291 12.0427 80.8738 12.5373 81.0231 13.032C81.1818 13.5173 81.3405 13.9793 81.4991 14.418C81.6391 14.0633 81.7838 13.648 81.9331 13.172C82.0918 12.696 82.2458 12.2013 82.3951 11.688C82.5445 11.1747 82.6845 10.6613 82.8151 10.148C82.9458 9.63467 83.0578 9.15867 83.1511 8.72H84.4951C84.1311 10.148 83.7438 11.478 83.3331 12.71C82.9225 13.942 82.5025 15.0387 82.0731 16H80.9391ZM87.566 15.062C88.098 15.062 88.49 14.992 88.742 14.852C89.0033 14.712 89.134 14.488 89.134 14.18C89.134 13.8627 89.008 13.6107 88.756 13.424C88.504 13.2373 88.0886 13.0273 87.51 12.794C87.23 12.682 86.9593 12.57 86.698 12.458C86.446 12.3367 86.2266 12.1967 86.04 12.038C85.8533 11.8793 85.704 11.688 85.592 11.464C85.48 11.24 85.424 10.9647 85.424 10.638C85.424 9.994 85.662 9.48533 86.138 9.112C86.614 8.72933 87.2626 8.538 88.084 8.538C88.2893 8.538 88.4946 8.552 88.7 8.58C88.9053 8.59867 89.0966 8.62667 89.274 8.664C89.4513 8.692 89.6053 8.72467 89.736 8.762C89.876 8.79933 89.9833 8.832 90.058 8.86L89.82 9.98C89.68 9.90533 89.4606 9.83067 89.162 9.756C88.8633 9.672 88.504 9.63 88.084 9.63C87.72 9.63 87.4026 9.70467 87.132 9.854C86.8613 9.994 86.726 10.218 86.726 10.526C86.726 10.6847 86.754 10.8247 86.81 10.946C86.8753 11.0673 86.9686 11.1793 87.09 11.282C87.2206 11.3753 87.3793 11.464 87.566 11.548C87.7526 11.632 87.9766 11.7207 88.238 11.814C88.5833 11.9447 88.8913 12.0753 89.162 12.206C89.4326 12.3273 89.6613 12.472 89.848 12.64C90.044 12.808 90.1933 13.0133 90.296 13.256C90.3986 13.4893 90.45 13.7787 90.45 14.124C90.45 14.796 90.198 15.3047 89.694 15.65C89.1993 15.9953 88.49 16.168 87.566 16.168C86.922 16.168 86.418 16.112 86.054 16C85.69 15.8973 85.4426 15.818 85.312 15.762L85.55 14.642C85.6993 14.698 85.9373 14.782 86.264 14.894C86.5906 15.006 87.0246 15.062 87.566 15.062Z" fill="#787A80"/>
<line x1="103.5" y1="5" x2="103.5" y2="16" stroke="#787A80" stroke-linecap="round"/>
<path d="M120.866 12.878C120.866 13.3447 120.815 13.7787 120.712 14.18C120.619 14.5813 120.446 14.936 120.194 15.244C119.951 15.5427 119.62 15.7807 119.2 15.958C118.789 16.126 118.271 16.21 117.646 16.21C117.329 16.21 117.035 16.182 116.764 16.126C116.503 16.0793 116.265 16.0187 116.05 15.944C115.835 15.86 115.649 15.776 115.49 15.692C115.331 15.5987 115.205 15.51 115.112 15.426L115.644 14.348C115.84 14.488 116.092 14.6373 116.4 14.796C116.717 14.9453 117.109 15.02 117.576 15.02C118.248 15.02 118.738 14.852 119.046 14.516C119.354 14.1707 119.508 13.5827 119.508 12.752V6.298H120.866V12.878ZM128.916 15.79C128.617 15.8647 128.221 15.944 127.726 16.028C127.241 16.112 126.676 16.154 126.032 16.154C125.472 16.154 125.001 16.0747 124.618 15.916C124.235 15.748 123.927 15.5147 123.694 15.216C123.461 14.9173 123.293 14.5673 123.19 14.166C123.087 13.7553 123.036 13.3027 123.036 12.808V8.72H124.338V12.528C124.338 13.4147 124.478 14.0493 124.758 14.432C125.038 14.8147 125.509 15.006 126.172 15.006C126.312 15.006 126.457 15.0013 126.606 14.992C126.755 14.9827 126.895 14.9733 127.026 14.964C127.157 14.9453 127.273 14.9313 127.376 14.922C127.488 14.9033 127.567 14.8847 127.614 14.866V8.72H128.916V15.79ZM131.159 8.93C131.458 8.85533 131.854 8.776 132.349 8.692C132.844 8.608 133.413 8.566 134.057 8.566C134.636 8.566 135.116 8.65 135.499 8.818C135.882 8.97667 136.185 9.20533 136.409 9.504C136.642 9.79333 136.806 10.1433 136.899 10.554C136.992 10.9647 137.039 11.4173 137.039 11.912V16H135.737V12.192C135.737 11.744 135.704 11.3613 135.639 11.044C135.583 10.7267 135.485 10.47 135.345 10.274C135.205 10.078 135.018 9.938 134.785 9.854C134.552 9.76067 134.262 9.714 133.917 9.714C133.777 9.714 133.632 9.71867 133.483 9.728C133.334 9.73733 133.189 9.75133 133.049 9.77C132.918 9.77933 132.797 9.79333 132.685 9.812C132.582 9.83067 132.508 9.84467 132.461 9.854V16H131.159V8.93ZM138.792 12.374C138.792 11.73 138.885 11.17 139.072 10.694C139.259 10.2087 139.506 9.80733 139.814 9.49C140.122 9.17267 140.477 8.93467 140.878 8.776C141.279 8.61733 141.69 8.538 142.11 8.538C143.09 8.538 143.841 8.846 144.364 9.462C144.887 10.0687 145.148 10.9973 145.148 12.248C145.148 12.304 145.148 12.3787 145.148 12.472C145.148 12.556 145.143 12.6353 145.134 12.71H140.15C140.206 13.466 140.425 14.04 140.808 14.432C141.191 14.824 141.788 15.02 142.6 15.02C143.057 15.02 143.44 14.9827 143.748 14.908C144.065 14.824 144.303 14.7447 144.462 14.67L144.644 15.762C144.485 15.846 144.205 15.9347 143.804 16.028C143.412 16.1213 142.964 16.168 142.46 16.168C141.825 16.168 141.275 16.0747 140.808 15.888C140.351 15.692 139.973 15.426 139.674 15.09C139.375 14.754 139.151 14.3573 139.002 13.9C138.862 13.4333 138.792 12.9247 138.792 12.374ZM143.79 11.66C143.799 11.072 143.65 10.5913 143.342 10.218C143.043 9.83533 142.628 9.644 142.096 9.644C141.797 9.644 141.531 9.70467 141.298 9.826C141.074 9.938 140.883 10.0873 140.724 10.274C140.565 10.4607 140.439 10.6753 140.346 10.918C140.262 11.1607 140.206 11.408 140.178 11.66H143.79ZM155.677 8.776C155.677 9.112 155.607 9.43867 155.467 9.756C155.336 10.064 155.159 10.372 154.935 10.68C154.711 10.9787 154.459 11.2773 154.179 11.576C153.899 11.8653 153.619 12.15 153.339 12.43C153.18 12.5887 152.993 12.7753 152.779 12.99C152.573 13.2047 152.377 13.4287 152.191 13.662C152.004 13.8953 151.845 14.1193 151.715 14.334C151.593 14.5487 151.533 14.7353 151.533 14.894H155.999V16H150.119C150.109 15.944 150.105 15.888 150.105 15.832C150.105 15.776 150.105 15.7247 150.105 15.678C150.105 15.2393 150.175 14.8333 150.315 14.46C150.464 14.0773 150.655 13.718 150.889 13.382C151.122 13.046 151.383 12.7287 151.673 12.43C151.962 12.1313 152.247 11.842 152.527 11.562C152.76 11.338 152.979 11.1187 153.185 10.904C153.399 10.68 153.586 10.4607 153.745 10.246C153.913 10.022 154.043 9.79333 154.137 9.56C154.239 9.32667 154.291 9.07933 154.291 8.818C154.291 8.538 154.244 8.3 154.151 8.104C154.067 7.908 153.95 7.74467 153.801 7.614C153.651 7.48333 153.474 7.39 153.269 7.334C153.073 7.26867 152.863 7.236 152.639 7.236C152.368 7.236 152.121 7.27333 151.897 7.348C151.673 7.42267 151.472 7.51133 151.295 7.614C151.117 7.70733 150.968 7.81 150.847 7.922C150.725 8.02467 150.632 8.104 150.567 8.16L149.923 7.236C150.007 7.14267 150.133 7.03067 150.301 6.9C150.469 6.76 150.669 6.62933 150.903 6.508C151.136 6.38667 151.397 6.284 151.687 6.2C151.976 6.116 152.289 6.074 152.625 6.074C153.642 6.074 154.403 6.312 154.907 6.788C155.42 7.25467 155.677 7.91733 155.677 8.776ZM157.601 12.64C157.778 12.2293 158.021 11.7533 158.329 11.212C158.637 10.6613 158.982 10.0967 159.365 9.518C159.757 8.93933 160.172 8.37 160.611 7.81C161.059 7.25 161.507 6.746 161.955 6.298H163.201V12.458H164.349V13.522H163.201V16H161.941V13.522H157.601V12.64ZM161.941 7.838C161.661 8.13667 161.376 8.47267 161.087 8.846C160.807 9.21 160.532 9.59267 160.261 9.994C159.99 10.3953 159.734 10.806 159.491 11.226C159.258 11.646 159.048 12.0567 158.861 12.458H161.941V7.838ZM167.435 14.404C167.445 14.4787 167.449 14.5533 167.449 14.628C167.449 14.6933 167.449 14.7633 167.449 14.838C167.449 15.426 167.361 16.0047 167.183 16.574C167.015 17.1527 166.782 17.7033 166.483 18.226L165.475 17.904C165.709 17.428 165.863 16.9427 165.937 16.448C166.012 15.9627 166.049 15.5053 166.049 15.076C166.049 14.9547 166.045 14.838 166.035 14.726C166.035 14.614 166.031 14.5067 166.021 14.404H167.435ZM178.167 8.776C178.167 9.112 178.097 9.43867 177.957 9.756C177.826 10.064 177.649 10.372 177.425 10.68C177.201 10.9787 176.949 11.2773 176.669 11.576C176.389 11.8653 176.109 12.15 175.829 12.43C175.67 12.5887 175.484 12.7753 175.269 12.99C175.064 13.2047 174.868 13.4287 174.681 13.662C174.494 13.8953 174.336 14.1193 174.205 14.334C174.084 14.5487 174.023 14.7353 174.023 14.894H178.489V16H172.609C172.6 15.944 172.595 15.888 172.595 15.832C172.595 15.776 172.595 15.7247 172.595 15.678C172.595 15.2393 172.665 14.8333 172.805 14.46C172.954 14.0773 173.146 13.718 173.379 13.382C173.612 13.046 173.874 12.7287 174.163 12.43C174.452 12.1313 174.737 11.842 175.017 11.562C175.25 11.338 175.47 11.1187 175.675 10.904C175.89 10.68 176.076 10.4607 176.235 10.246C176.403 10.022 176.534 9.79333 176.627 9.56C176.73 9.32667 176.781 9.07933 176.781 8.818C176.781 8.538 176.734 8.3 176.641 8.104C176.557 7.908 176.44 7.74467 176.291 7.614C176.142 7.48333 175.964 7.39 175.759 7.334C175.563 7.26867 175.353 7.236 175.129 7.236C174.858 7.236 174.611 7.27333 174.387 7.348C174.163 7.42267 173.962 7.51133 173.785 7.614C173.608 7.70733 173.458 7.81 173.337 7.922C173.216 8.02467 173.122 8.104 173.057 8.16L172.413 7.236C172.497 7.14267 172.623 7.03067 172.791 6.9C172.959 6.76 173.16 6.62933 173.393 6.508C173.626 6.38667 173.888 6.284 174.177 6.2C174.466 6.116 174.779 6.074 175.115 6.074C176.132 6.074 176.893 6.312 177.397 6.788C177.91 7.25467 178.167 7.91733 178.167 8.776ZM180.231 11.142C180.231 9.518 180.516 8.26733 181.085 7.39C181.664 6.51267 182.462 6.074 183.479 6.074C184.497 6.074 185.29 6.51267 185.859 7.39C186.438 8.26733 186.727 9.518 186.727 11.142C186.727 12.766 186.438 14.0167 185.859 14.894C185.29 15.7713 184.497 16.21 183.479 16.21C182.462 16.21 181.664 15.7713 181.085 14.894C180.516 14.0167 180.231 12.766 180.231 11.142ZM185.355 11.142C185.355 10.61 185.323 10.106 185.257 9.63C185.201 9.154 185.099 8.73867 184.949 8.384C184.809 8.02933 184.618 7.74933 184.375 7.544C184.133 7.32933 183.834 7.222 183.479 7.222C183.125 7.222 182.826 7.32933 182.583 7.544C182.341 7.74933 182.145 8.02933 181.995 8.384C181.855 8.73867 181.753 9.154 181.687 9.63C181.631 10.106 181.603 10.61 181.603 11.142C181.603 11.674 181.631 12.178 181.687 12.654C181.753 13.13 181.855 13.5453 181.995 13.9C182.145 14.2547 182.341 14.5393 182.583 14.754C182.826 14.9593 183.125 15.062 183.479 15.062C183.834 15.062 184.133 14.9593 184.375 14.754C184.618 14.5393 184.809 14.2547 184.949 13.9C185.099 13.5453 185.201 13.13 185.257 12.654C185.323 12.178 185.355 11.674 185.355 11.142ZM193.972 8.776C193.972 9.112 193.902 9.43867 193.762 9.756C193.631 10.064 193.454 10.372 193.23 10.68C193.006 10.9787 192.754 11.2773 192.474 11.576C192.194 11.8653 191.914 12.15 191.634 12.43C191.475 12.5887 191.288 12.7753 191.074 12.99C190.868 13.2047 190.672 13.4287 190.486 13.662C190.299 13.8953 190.14 14.1193 190.01 14.334C189.888 14.5487 189.828 14.7353 189.828 14.894H194.294V16H188.414C188.404 15.944 188.4 15.888 188.4 15.832C188.4 15.776 188.4 15.7247 188.4 15.678C188.4 15.2393 188.47 14.8333 188.61 14.46C188.759 14.0773 188.95 13.718 189.184 13.382C189.417 13.046 189.678 12.7287 189.968 12.43C190.257 12.1313 190.542 11.842 190.822 11.562C191.055 11.338 191.274 11.1187 191.48 10.904C191.694 10.68 191.881 10.4607 192.04 10.246C192.208 10.022 192.338 9.79333 192.432 9.56C192.534 9.32667 192.586 9.07933 192.586 8.818C192.586 8.538 192.539 8.3 192.446 8.104C192.362 7.908 192.245 7.74467 192.096 7.614C191.946 7.48333 191.769 7.39 191.564 7.334C191.368 7.26867 191.158 7.236 190.934 7.236C190.663 7.236 190.416 7.27333 190.192 7.348C189.968 7.42267 189.767 7.51133 189.59 7.614C189.412 7.70733 189.263 7.81 189.142 7.922C189.02 8.02467 188.927 8.104 188.862 8.16L188.218 7.236C188.302 7.14267 188.428 7.03067 188.596 6.9C188.764 6.76 188.964 6.62933 189.198 6.508C189.431 6.38667 189.692 6.284 189.982 6.2C190.271 6.116 190.584 6.074 190.92 6.074C191.937 6.074 192.698 6.312 193.202 6.788C193.715 7.25467 193.972 7.91733 193.972 8.776ZM196.036 11.142C196.036 9.518 196.321 8.26733 196.89 7.39C197.469 6.51267 198.267 6.074 199.284 6.074C200.301 6.074 201.095 6.51267 201.664 7.39C202.243 8.26733 202.532 9.518 202.532 11.142C202.532 12.766 202.243 14.0167 201.664 14.894C201.095 15.7713 200.301 16.21 199.284 16.21C198.267 16.21 197.469 15.7713 196.89 14.894C196.321 14.0167 196.036 12.766 196.036 11.142ZM201.16 11.142C201.16 10.61 201.127 10.106 201.062 9.63C201.006 9.154 200.903 8.73867 200.754 8.384C200.614 8.02933 200.423 7.74933 200.18 7.544C199.937 7.32933 199.639 7.222 199.284 7.222C198.929 7.222 198.631 7.32933 198.388 7.544C198.145 7.74933 197.949 8.02933 197.8 8.384C197.66 8.73867 197.557 9.154 197.492 9.63C197.436 10.106 197.408 10.61 197.408 11.142C197.408 11.674 197.436 12.178 197.492 12.654C197.557 13.13 197.66 13.5453 197.8 13.9C197.949 14.2547 198.145 14.5393 198.388 14.754C198.631 14.9593 198.929 15.062 199.284 15.062C199.639 15.062 199.937 14.9593 200.18 14.754C200.423 14.5393 200.614 14.2547 200.754 13.9C200.903 13.5453 201.006 13.13 201.062 12.654C201.127 12.178 201.16 11.674 201.16 11.142Z" fill="#787A80"/>
<line x1="216.5" y1="5" x2="216.5" y2="16" stroke="#787A80" stroke-linecap="round"/>
<g clip-path="url(#clip1_111240_808)">
<path fill-rule="evenodd" clip-rule="evenodd" d="M242.615 9.54557C242.52 10.2034 242.295 10.8286 241.962 11.4036C241.987 11.5459 242 11.6898 242 11.8343C242 12.3362 241.854 12.8165 241.585 13.2529C241.45 13.4707 241.416 13.726 241.403 13.8946C241.387 14.0879 241.392 14.2994 241.406 14.5025C241.422 14.7304 241.45 14.9697 241.482 15.1954C241.222 15.1196 240.94 15.0434 240.67 14.9826C240.447 14.9321 240.217 14.8891 240.01 14.8676C239.829 14.849 239.567 14.8345 239.334 14.9101C238.822 15.0754 238.259 15.1676 237.666 15.1676C236.961 15.1676 236.313 15.0424 235.746 14.825C235.609 14.8312 235.471 14.8343 235.333 14.8343C234.53 14.8343 233.757 14.7287 233.034 14.5335C234.085 15.7494 235.818 16.501 237.666 16.501C238.388 16.501 239.081 16.3901 239.72 16.1864C239.721 16.1865 239.723 16.1864 239.726 16.1864C239.742 16.186 239.788 16.1851 239.873 16.1939C240.007 16.2077 240.179 16.2385 240.377 16.2833C240.772 16.3724 241.216 16.5038 241.562 16.6136C242.295 16.8464 243.006 16.2064 242.875 15.4621C242.818 15.1418 242.759 14.7508 242.736 14.4122C242.725 14.2419 242.724 14.1021 242.732 13.9995C242.735 13.957 242.739 13.9304 242.742 13.9162C243.117 13.2949 243.333 12.5874 243.333 11.8343C243.333 10.9853 243.069 10.2099 242.615 9.54557Z" fill="#787A80"/>
<path fill-rule="evenodd" clip-rule="evenodd" d="M231.731 6.29943C230.832 6.98662 230.333 7.88871 230.333 8.83398C230.333 9.30534 230.456 9.75932 230.686 10.1815C230.774 10.3423 230.799 10.5081 230.807 10.6204C230.817 10.7428 230.812 10.8687 230.802 10.9863C230.78 11.2219 230.729 11.4888 230.668 11.7517C230.597 12.0593 230.506 12.3872 230.413 12.6952C230.765 12.5672 231.15 12.436 231.515 12.3296C231.81 12.2435 232.108 12.1689 232.373 12.1269C232.601 12.0908 232.932 12.0554 233.218 12.1541C233.858 12.3756 234.574 12.5007 235.333 12.5007C236.765 12.5007 238.036 12.0562 238.935 11.3685C239.834 10.6813 240.333 9.77926 240.333 8.83398C240.333 7.88871 239.834 6.98662 238.935 6.29943C238.036 5.61176 236.765 5.16732 235.333 5.16732C233.902 5.16732 232.63 5.61176 231.731 6.29943ZM230.921 5.24028C232.073 4.35959 233.635 3.83398 235.333 3.83398C237.031 3.83398 238.593 4.35959 239.745 5.24028C240.897 6.12145 241.666 7.38602 241.666 8.83398C241.666 10.2819 240.897 11.5465 239.745 12.4277C238.593 13.3084 237.031 13.834 235.333 13.834C234.438 13.834 233.582 13.688 232.806 13.4224C232.805 13.4246 232.742 13.4184 232.581 13.4439C232.395 13.4733 232.158 13.5308 231.888 13.6095C231.351 13.7662 230.748 13.9878 230.289 14.1666C229.493 14.4763 228.683 13.712 228.951 12.8979C229.093 12.4665 229.26 11.9212 229.37 11.4504C229.425 11.2132 229.46 11.0138 229.474 10.8662C229.478 10.8149 229.48 10.7776 229.479 10.7523C229.172 10.1659 229 9.51748 229 8.83398C229 7.38602 229.769 6.12145 230.921 5.24028Z" fill="#787A80"/>
<path d="M252.56 12.64C252.737 12.2293 252.98 11.7533 253.288 11.212C253.596 10.6613 253.941 10.0967 254.324 9.518C254.716 8.93933 255.131 8.37 255.57 7.81C256.018 7.25 256.466 6.746 256.914 6.298H258.16V12.458H259.308V13.522H258.16V16H256.9V13.522H252.56V12.64ZM256.9 7.838C256.62 8.13667 256.335 8.47267 256.046 8.846C255.766 9.21 255.491 9.59267 255.22 9.994C254.949 10.3953 254.693 10.806 254.45 11.226C254.217 11.646 254.007 12.0567 253.82 12.458H256.9V7.838ZM267.427 16.168C266.839 16.168 266.321 16.0747 265.873 15.888C265.434 15.7013 265.061 15.44 264.753 15.104C264.454 14.768 264.23 14.3713 264.081 13.914C263.931 13.4473 263.857 12.934 263.857 12.374C263.857 11.814 263.936 11.3007 264.095 10.834C264.263 10.3673 264.496 9.966 264.795 9.63C265.093 9.28467 265.457 9.01867 265.887 8.832C266.325 8.636 266.811 8.538 267.343 8.538C267.669 8.538 267.996 8.566 268.323 8.622C268.649 8.678 268.962 8.76667 269.261 8.888L268.967 9.994C268.771 9.90067 268.542 9.826 268.281 9.77C268.029 9.714 267.758 9.686 267.469 9.686C266.741 9.686 266.181 9.91467 265.789 10.372C265.406 10.8293 265.215 11.4967 265.215 12.374C265.215 12.766 265.257 13.1253 265.341 13.452C265.434 13.7787 265.574 14.0587 265.761 14.292C265.957 14.5253 266.204 14.7073 266.503 14.838C266.801 14.9593 267.165 15.02 267.595 15.02C267.94 15.02 268.253 14.9873 268.533 14.922C268.813 14.8567 269.032 14.7867 269.191 14.712L269.373 15.804C269.298 15.8507 269.191 15.8973 269.051 15.944C268.911 15.9813 268.752 16.014 268.575 16.042C268.397 16.0793 268.206 16.1073 268.001 16.126C267.805 16.154 267.613 16.168 267.427 16.168ZM277.019 12.36C277.019 12.9387 276.935 13.4613 276.767 13.928C276.599 14.3947 276.361 14.796 276.053 15.132C275.754 15.468 275.395 15.7293 274.975 15.916C274.555 16.0933 274.097 16.182 273.603 16.182C273.108 16.182 272.651 16.0933 272.231 15.916C271.811 15.7293 271.447 15.468 271.139 15.132C270.84 14.796 270.607 14.3947 270.439 13.928C270.271 13.4613 270.187 12.9387 270.187 12.36C270.187 11.7907 270.271 11.2727 270.439 10.806C270.607 10.33 270.84 9.924 271.139 9.588C271.447 9.252 271.811 8.99533 272.231 8.818C272.651 8.63133 273.108 8.538 273.603 8.538C274.097 8.538 274.555 8.63133 274.975 8.818C275.395 8.99533 275.754 9.252 276.053 9.588C276.361 9.924 276.599 10.33 276.767 10.806C276.935 11.2727 277.019 11.7907 277.019 12.36ZM275.661 12.36C275.661 11.5387 275.474 10.89 275.101 10.414C274.737 9.92867 274.237 9.686 273.603 9.686C272.968 9.686 272.464 9.92867 272.091 10.414C271.727 10.89 271.545 11.5387 271.545 12.36C271.545 13.1813 271.727 13.8347 272.091 14.32C272.464 14.796 272.968 15.034 273.603 15.034C274.237 15.034 274.737 14.796 275.101 14.32C275.474 13.8347 275.661 13.1813 275.661 12.36ZM278.85 8.93C279.149 8.85533 279.541 8.776 280.026 8.692C280.521 8.608 281.09 8.566 281.734 8.566C282.201 8.566 282.593 8.63133 282.91 8.762C283.228 8.88333 283.494 9.06533 283.708 9.308C283.774 9.26133 283.876 9.196 284.016 9.112C284.156 9.028 284.329 8.94867 284.534 8.874C284.74 8.79 284.968 8.72 285.22 8.664C285.472 8.59867 285.743 8.566 286.032 8.566C286.592 8.566 287.05 8.65 287.404 8.818C287.759 8.97667 288.034 9.20533 288.23 9.504C288.436 9.80267 288.571 10.1573 288.636 10.568C288.711 10.9787 288.748 11.4267 288.748 11.912V16H287.446V12.192C287.446 11.7627 287.423 11.394 287.376 11.086C287.339 10.778 287.26 10.5213 287.138 10.316C287.026 10.1107 286.868 9.96133 286.662 9.868C286.466 9.76533 286.21 9.714 285.892 9.714C285.454 9.714 285.09 9.77467 284.8 9.896C284.52 10.008 284.329 10.1107 284.226 10.204C284.301 10.4467 284.357 10.7127 284.394 11.002C284.432 11.2913 284.45 11.5947 284.45 11.912V16H283.148V12.192C283.148 11.7627 283.125 11.394 283.078 11.086C283.032 10.778 282.948 10.5213 282.826 10.316C282.714 10.1107 282.556 9.96133 282.35 9.868C282.154 9.76533 281.902 9.714 281.594 9.714C281.464 9.714 281.324 9.71867 281.174 9.728C281.025 9.73733 280.88 9.75133 280.74 9.77C280.61 9.77933 280.488 9.79333 280.376 9.812C280.264 9.83067 280.19 9.84467 280.152 9.854V16H278.85V8.93ZM290.909 8.93C291.208 8.85533 291.6 8.776 292.085 8.692C292.58 8.608 293.149 8.566 293.793 8.566C294.26 8.566 294.652 8.63133 294.969 8.762C295.286 8.88333 295.552 9.06533 295.767 9.308C295.832 9.26133 295.935 9.196 296.075 9.112C296.215 9.028 296.388 8.94867 296.593 8.874C296.798 8.79 297.027 8.72 297.279 8.664C297.531 8.59867 297.802 8.566 298.091 8.566C298.651 8.566 299.108 8.65 299.463 8.818C299.818 8.97667 300.093 9.20533 300.289 9.504C300.494 9.80267 300.63 10.1573 300.695 10.568C300.77 10.9787 300.807 11.4267 300.807 11.912V16H299.505V12.192C299.505 11.7627 299.482 11.394 299.435 11.086C299.398 10.778 299.318 10.5213 299.197 10.316C299.085 10.1107 298.926 9.96133 298.721 9.868C298.525 9.76533 298.268 9.714 297.951 9.714C297.512 9.714 297.148 9.77467 296.859 9.896C296.579 10.008 296.388 10.1107 296.285 10.204C296.36 10.4467 296.416 10.7127 296.453 11.002C296.49 11.2913 296.509 11.5947 296.509 11.912V16H295.207V12.192C295.207 11.7627 295.184 11.394 295.137 11.086C295.09 10.778 295.006 10.5213 294.885 10.316C294.773 10.1107 294.614 9.96133 294.409 9.868C294.213 9.76533 293.961 9.714 293.653 9.714C293.522 9.714 293.382 9.71867 293.233 9.728C293.084 9.73733 292.939 9.75133 292.799 9.77C292.668 9.77933 292.547 9.79333 292.435 9.812C292.323 9.83067 292.248 9.84467 292.211 9.854V16H290.909V8.93ZM302.562 12.374C302.562 11.73 302.655 11.17 302.842 10.694C303.028 10.2087 303.276 9.80733 303.584 9.49C303.892 9.17267 304.246 8.93467 304.648 8.776C305.049 8.61733 305.46 8.538 305.88 8.538C306.86 8.538 307.611 8.846 308.134 9.462C308.656 10.0687 308.918 10.9973 308.918 12.248C308.918 12.304 308.918 12.3787 308.918 12.472C308.918 12.556 308.913 12.6353 308.904 12.71H303.92C303.976 13.466 304.195 14.04 304.578 14.432C304.96 14.824 305.558 15.02 306.37 15.02C306.827 15.02 307.21 14.9827 307.518 14.908C307.835 14.824 308.073 14.7447 308.232 14.67L308.414 15.762C308.255 15.846 307.975 15.9347 307.574 16.028C307.182 16.1213 306.734 16.168 306.23 16.168C305.595 16.168 305.044 16.0747 304.578 15.888C304.12 15.692 303.742 15.426 303.444 15.09C303.145 14.754 302.921 14.3573 302.772 13.9C302.632 13.4333 302.562 12.9247 302.562 12.374ZM307.56 11.66C307.569 11.072 307.42 10.5913 307.112 10.218C306.813 9.83533 306.398 9.644 305.866 9.644C305.567 9.644 305.301 9.70467 305.068 9.826C304.844 9.938 304.652 10.0873 304.494 10.274C304.335 10.4607 304.209 10.6753 304.116 10.918C304.032 11.1607 303.976 11.408 303.948 11.66H307.56ZM310.788 8.93C311.087 8.85533 311.483 8.776 311.978 8.692C312.473 8.608 313.042 8.566 313.686 8.566C314.265 8.566 314.745 8.65 315.128 8.818C315.511 8.97667 315.814 9.20533 316.038 9.504C316.271 9.79333 316.435 10.1433 316.528 10.554C316.621 10.9647 316.668 11.4173 316.668 11.912V16H315.366V12.192C315.366 11.744 315.333 11.3613 315.268 11.044C315.212 10.7267 315.114 10.47 314.974 10.274C314.834 10.078 314.647 9.938 314.414 9.854C314.181 9.76067 313.891 9.714 313.546 9.714C313.406 9.714 313.261 9.71867 313.112 9.728C312.963 9.73733 312.818 9.75133 312.678 9.77C312.547 9.77933 312.426 9.79333 312.314 9.812C312.211 9.83067 312.137 9.84467 312.09 9.854V16H310.788V8.93ZM320.045 8.72H322.803V9.812H320.045V13.172C320.045 13.536 320.073 13.8393 320.129 14.082C320.185 14.3153 320.269 14.502 320.381 14.642C320.493 14.7727 320.633 14.866 320.801 14.922C320.969 14.978 321.165 15.006 321.389 15.006C321.781 15.006 322.094 14.964 322.327 14.88C322.57 14.7867 322.738 14.7213 322.831 14.684L323.083 15.762C322.952 15.8273 322.724 15.9067 322.397 16C322.07 16.1027 321.697 16.154 321.277 16.154C320.782 16.154 320.372 16.0933 320.045 15.972C319.728 15.8413 319.471 15.65 319.275 15.398C319.079 15.146 318.939 14.838 318.855 14.474C318.78 14.1007 318.743 13.6713 318.743 13.186V6.69L320.045 6.466V8.72ZM326.154 15.062C326.686 15.062 327.078 14.992 327.33 14.852C327.591 14.712 327.722 14.488 327.722 14.18C327.722 13.8627 327.596 13.6107 327.344 13.424C327.092 13.2373 326.677 13.0273 326.098 12.794C325.818 12.682 325.547 12.57 325.286 12.458C325.034 12.3367 324.815 12.1967 324.628 12.038C324.441 11.8793 324.292 11.688 324.18 11.464C324.068 11.24 324.012 10.9647 324.012 10.638C324.012 9.994 324.25 9.48533 324.726 9.112C325.202 8.72933 325.851 8.538 326.672 8.538C326.877 8.538 327.083 8.552 327.288 8.58C327.493 8.59867 327.685 8.62667 327.862 8.664C328.039 8.692 328.193 8.72467 328.324 8.762C328.464 8.79933 328.571 8.832 328.646 8.86L328.408 9.98C328.268 9.90533 328.049 9.83067 327.75 9.756C327.451 9.672 327.092 9.63 326.672 9.63C326.308 9.63 325.991 9.70467 325.72 9.854C325.449 9.994 325.314 10.218 325.314 10.526C325.314 10.6847 325.342 10.8247 325.398 10.946C325.463 11.0673 325.557 11.1793 325.678 11.282C325.809 11.3753 325.967 11.464 326.154 11.548C326.341 11.632 326.565 11.7207 326.826 11.814C327.171 11.9447 327.479 12.0753 327.75 12.206C328.021 12.3273 328.249 12.472 328.436 12.64C328.632 12.808 328.781 13.0133 328.884 13.256C328.987 13.4893 329.038 13.7787 329.038 14.124C329.038 14.796 328.786 15.3047 328.282 15.65C327.787 15.9953 327.078 16.168 326.154 16.168C325.51 16.168 325.006 16.112 324.642 16C324.278 15.8973 324.031 15.818 323.9 15.762L324.138 14.642C324.287 14.698 324.525 14.782 324.852 14.894C325.179 15.006 325.613 15.062 326.154 15.062Z" fill="#787A80"/>
</g>
</g>
<defs>
<clipPath id="clip0_111240_808">
<rect width="330" height="21" fill="white"/>
</clipPath>
<clipPath id="clip1_111240_808">
<rect width="102" height="21" fill="white" transform="translate(228)"/>
</clipPath>
</defs>
</svg>
